<?xml version="1.0" encoding="UTF-8" standalone="no"?>
<svg
   version="1.1"
   id="svg8"
   xml:space="preserve"
   width="537mm"
   height="147mm"
   viewBox="0 0 2029.6062 555.59052"
   sodipodi:docname="logo.svg"
   inkscape:version="1.1-dev (0486c1a, 2020-10-10)"
   xmlns:inkscape="http://www.inkscape.org/namespaces/inkscape"
   xmlns:sodipodi="http://sodipodi.sourceforge.net/DTD/sodipodi-0.dtd"
   xmlns="http://www.w3.org/2000/svg"
   xmlns:svg="http://www.w3.org/2000/svg"><defs
     id="defs12"><clipPath
       clipPathUnits="userSpaceOnUse"
       id="clipPath24"><path
         d="M 0,2000 H 2000 V 0 H 0 Z"
         id="path22" /></clipPath></defs><sodipodi:namedview
     pagecolor="#ffffff"
     bordercolor="#666666"
     borderopacity="1"
     objecttolerance="10"
     gridtolerance="10"
     guidetolerance="10"
     inkscape:pageopacity="0"
     inkscape:pageshadow="2"
     inkscape:window-width="1792"
     inkscape:window-height="987"
     id="namedview10"
     showgrid="false"
     fit-margin-top="0"
     fit-margin-left="0"
     fit-margin-right="0"
     fit-margin-bottom="0"
     units="mm"
     inkscape:zoom="0.20179059"
     inkscape:cx="-29.733795"
     inkscape:cy="-359.28335"
     inkscape:window-x="0"
     inkscape:window-y="25"
     inkscape:window-maximized="1"
     inkscape:current-layer="g14" /><g
     id="g14"
     inkscape:groupmode="layer"
     inkscape:label="Source file"
     transform="matrix(1.3333333,0,0,-1.3333333,-301.71274,1605.9488)"><path
       d="M 226.28456,787.76868 H 1748.4893 V 1204.4616 H 226.28456 Z"
       style="fill:#1e234d;fill-opacity:1;fill-rule:nonzero;stroke:none;stroke-width:0.398213"
       id="path16" /><g
       id="g18"><g
         id="g20"
         clip-path="url(#clipPath24)"><g
           id="g26"
           transform="translate(645.8384,906.498)"><path
             d="m 0,0 c -2.37,1.18 -5.187,1.848 -8.376,2.193 l -0.003,10e-4 -5.575,0.592 c -1.95,0.205 -3.552,0.546 -4.828,0.982 -1.923,0.658 -3.073,1.498 -3.763,2.397 -0.684,0.904 -1.01,1.942 -1.018,3.353 0.002,1.226 0.275,2.25 0.762,3.153 0.73,1.347 1.989,2.47 3.779,3.284 1.783,0.812 4.074,1.28 6.664,1.278 5.901,-0.005 10.149,-1.941 13.142,-4.128 l 1.727,-1.266 1.146,1.808 2.174,3.433 -1.482,1.108 c -3.751,2.814 -9.289,5.263 -16.676,5.257 -4.717,-0.004 -9.03,-1.156 -12.29,-3.526 -1.625,-1.185 -2.977,-2.687 -3.909,-4.471 -0.934,-1.782 -1.437,-3.836 -1.435,-6.055 -0.001,-1.741 0.294,-3.394 0.931,-4.899 0.949,-2.265 2.686,-4.125 4.995,-5.421 2.313,-1.303 5.183,-2.103 8.629,-2.475 L -9.7,-3.995 h -0.004 c 1.823,-0.192 3.386,-0.488 4.671,-0.88 1.937,-0.589 3.199,-1.377 3.958,-2.271 0.384,-0.452 0.661,-0.938 0.859,-1.522 0.195,-0.582 0.307,-1.267 0.308,-2.089 -0.004,-1.364 -0.315,-2.437 -0.858,-3.365 -0.41,-0.693 -0.963,-1.312 -1.674,-1.864 -1.064,-0.829 -2.495,-1.501 -4.213,-1.954 -1.716,-0.455 -3.711,-0.691 -5.861,-0.69 -2.988,-0.001 -5.812,0.596 -8.245,1.468 -2.43,0.868 -4.47,2.018 -5.846,3.053 l -1.659,1.244 -3.557,-5.116 1.531,-1.16 c 1.989,-1.502 4.599,-2.906 7.635,-3.959 3.033,-1.048 6.491,-1.74 10.141,-1.741 4.978,0.007 9.587,1.024 13.13,3.348 1.765,1.162 3.255,2.673 4.286,4.523 1.035,1.848 1.591,4.018 1.588,6.4 0.002,1.946 -0.359,3.727 -1.095,5.29 C 4.294,-2.926 2.362,-1.169 0,0"
             style="fill:#ffffff;fill-opacity:1;fill-rule:nonzero;stroke:none"
             id="path28" /></g><g
           id="g30"
           transform="translate(720.2573,887.8682)"><path
             d="m 0,0 c -5.013,0.004 -9.402,1.812 -12.561,4.918 -3.152,3.113 -5.114,7.535 -5.122,13.014 0.008,5.479 1.97,9.9 5.122,13.013 3.159,3.107 7.548,4.914 12.561,4.918 4.996,-0.004 9.386,-1.81 12.55,-4.919 3.157,-3.114 5.125,-7.536 5.133,-13.012 C 17.675,12.455 15.707,8.033 12.55,4.919 9.386,1.812 4.996,0.004 0,0 m 0,42.075 c -6.695,0.004 -12.753,-2.437 -17.115,-6.715 -4.368,-4.269 -7.004,-10.365 -6.997,-17.428 -0.007,-7.063 2.629,-13.16 6.997,-17.428 4.362,-4.276 10.42,-6.719 17.115,-6.715 6.695,-0.004 12.753,2.439 17.115,6.715 4.368,4.268 7.004,10.365 6.997,17.428 0.007,7.063 -2.629,13.159 -6.997,17.428 C 12.753,39.638 6.695,42.079 0,42.075"
             style="fill:#ffffff;fill-opacity:1;fill-rule:nonzero;stroke:none"
             id="path32" /></g><g
           id="g34"
           transform="translate(797.3887,929.6006)"><path
             d="M 0,0 H -6.305 V -47.601 H 26.69 v 2 4.211 H 0 Z"
             style="fill:#ffffff;fill-opacity:1;fill-rule:nonzero;stroke:none"
             id="path36" /></g><g
           id="g38"
           transform="translate(868.1128,882)"><path
             d="M 0,0 H 6.305 V 2 47.601 H 0 Z"
             style="fill:#ffffff;fill-opacity:1;fill-rule:nonzero;stroke:none"
             id="path40" /></g><g
           id="g42"
           transform="translate(945.3008,923.7314)"><path
             d="m 0,0 c 5.89,0 11.059,-2.763 13.793,-7.05 l 1.106,-1.73 5.228,3.542 -1.022,1.634 C 17.182,-0.527 14.382,1.929 11.085,3.611 7.786,5.294 3.983,6.212 0,6.212 -6.695,6.216 -12.753,3.774 -17.115,-0.503 c -4.368,-4.269 -7.004,-10.365 -6.997,-17.429 -0.007,-7.062 2.629,-13.159 6.997,-17.427 4.362,-4.277 10.42,-6.719 17.115,-6.715 7.925,0 15.083,3.641 19.051,9.686 l 1.048,1.599 -5.159,3.723 -1.142,-1.77 C 11.029,-33.132 5.896,-35.861 0,-35.863 c -4.996,0.004 -9.387,1.811 -12.55,4.919 -3.157,3.114 -5.125,7.536 -5.133,13.012 0.008,5.477 1.976,9.899 5.133,13.013 C -9.387,-1.811 -4.996,-0.004 0,0"
             style="fill:#ffffff;fill-opacity:1;fill-rule:nonzero;stroke:none"
             id="path44" /></g><g
           id="g46"
           transform="translate(1011.2988,882)"><path
             d="M 0,0 H 6.305 V 2 47.601 H 0 Z"
             style="fill:#ffffff;fill-opacity:1;fill-rule:nonzero;stroke:none"
             id="path48" /></g><g
           id="g50"
           transform="translate(1061.665,923.3896)"><path
             d="m 0,0 h 16.444 v -41.39 h 6.305 V 0 H 39.192 V 2 6.211 H 0 Z"
             style="fill:#ffffff;fill-opacity:1;fill-rule:nonzero;stroke:none"
             id="path52" /></g><g
           id="g54"
           transform="translate(1164.7051,887.8682)"><path
             d="m 0,0 c -5.013,0.004 -9.401,1.812 -12.561,4.918 -3.153,3.113 -5.115,7.535 -5.122,13.014 0.007,5.478 1.97,9.9 5.122,13.013 3.16,3.107 7.548,4.914 12.561,4.918 4.996,-0.004 9.387,-1.81 12.55,-4.919 3.157,-3.114 5.125,-7.535 5.133,-13.012 C 17.675,12.455 15.707,8.033 12.55,4.919 9.387,1.812 4.996,0.004 0,0 m 0,42.075 c -6.694,0.004 -12.753,-2.437 -17.115,-6.715 -4.368,-4.269 -7.003,-10.365 -6.996,-17.428 -0.007,-7.063 2.628,-13.16 6.996,-17.428 4.362,-4.276 10.42,-6.719 17.115,-6.715 6.695,-0.004 12.753,2.439 17.115,6.714 4.368,4.269 7.004,10.366 6.997,17.429 0.007,7.063 -2.628,13.159 -6.997,17.428 C 12.753,39.638 6.695,42.079 0,42.075"
             style="fill:#ffffff;fill-opacity:1;fill-rule:nonzero;stroke:none"
             id="path56" /></g><g
           id="g58"
           transform="translate(1241.8369,923.4209)"><path
             d="m 0,0 h 11.765 c 3.673,0.004 6.329,-0.824 7.95,-2.101 0.818,-0.64 1.41,-1.387 1.827,-2.297 0.413,-0.911 0.648,-2.001 0.649,-3.319 -10e-4,-1.328 -0.235,-2.431 -0.649,-3.354 -0.627,-1.377 -1.639,-2.415 -3.233,-3.206 -1.592,-0.782 -3.787,-1.252 -6.544,-1.25 H 0 Z m 23.882,-18.032 c 1.509,1.209 2.707,2.728 3.506,4.48 0.8,1.752 1.202,3.725 1.201,5.835 0.001,2.129 -0.383,4.109 -1.168,5.866 -1.171,2.645 -3.264,4.727 -5.959,6.054 -2.7,1.335 -5.983,1.975 -9.759,1.977 H -6.305 V -41.421 H 0 v 19.776 h 5.16 l 17.378,-19.776 h 8.248 l -17.574,19.822 c 4.293,0.219 7.947,1.39 10.67,3.567"
             style="fill:#ffffff;fill-opacity:1;fill-rule:nonzero;stroke:none"
             id="path60" /></g><g
           id="g62"
           transform="translate(1345.1074,906.498)"><path
             d="m 0,0 c -2.369,1.18 -5.186,1.848 -8.376,2.193 l -0.003,10e-4 -5.574,0.592 c -1.95,0.205 -3.553,0.546 -4.829,0.982 -1.923,0.658 -3.072,1.498 -3.763,2.397 -0.684,0.904 -1.01,1.942 -1.017,3.353 0.001,1.226 0.275,2.25 0.761,3.153 0.731,1.347 1.989,2.47 3.78,3.284 1.782,0.812 4.074,1.28 6.663,1.278 5.902,-0.005 10.148,-1.941 13.143,-4.128 l 1.727,-1.266 1.145,1.808 2.174,3.433 -1.482,1.108 c -3.75,2.814 -9.288,5.263 -16.676,5.257 -4.717,-0.004 -9.029,-1.156 -12.289,-3.526 -1.626,-1.185 -2.978,-2.687 -3.909,-4.471 -0.935,-1.782 -1.438,-3.836 -1.436,-6.055 -0.001,-1.741 0.294,-3.394 0.932,-4.899 0.949,-2.265 2.685,-4.125 4.994,-5.421 2.313,-1.303 5.182,-2.103 8.629,-2.475 l 0.007,-10e-4 5.699,-0.592 h -0.003 c 1.822,-0.192 3.385,-0.488 4.67,-0.88 1.936,-0.589 3.199,-1.377 3.958,-2.271 0.384,-0.452 0.661,-0.938 0.858,-1.522 0.196,-0.582 0.309,-1.267 0.309,-2.089 -0.004,-1.364 -0.315,-2.437 -0.858,-3.365 -0.41,-0.694 -0.963,-1.312 -1.674,-1.864 -1.064,-0.829 -2.495,-1.501 -4.212,-1.954 -1.716,-0.455 -3.711,-0.691 -5.862,-0.69 -2.988,-0.001 -5.812,0.596 -8.244,1.468 -2.43,0.868 -4.471,2.018 -5.847,3.054 l -1.66,1.243 -3.555,-5.116 1.531,-1.16 c 1.988,-1.502 4.599,-2.906 7.634,-3.959 3.034,-1.048 6.492,-1.74 10.141,-1.741 4.979,0.007 9.587,1.024 13.13,3.348 1.766,1.162 3.255,2.673 4.286,4.523 1.035,1.848 1.591,4.018 1.588,6.4 10e-4,1.946 -0.359,3.727 -1.095,5.29 C 4.295,-2.926 2.363,-1.169 0,0"
             style="fill:#ffffff;fill-opacity:1;fill-rule:nonzero;stroke:none"
             id="path64" /></g><g
           id="g66"
           transform="translate(393.6714,1047.9463)"><path
             d="m 0,0 h -44.116 l 22.09,51.168 z m -17.443,63.615 h -9.02 l -44.61,-103.398 h 9.897 L -47.97,-9.041 H 3.922 l 13.206,-30.742 h 10.039 l -1.205,2.792 z"
             style="fill:#ffffff;fill-opacity:1;fill-rule:nonzero;stroke:none"
             id="path68" /></g><g
           id="g70"
           transform="translate(469.208,1111.5615)"><path
             d="m 0,0 h -9.254 v -103.398 h 70.1 v 2 7.041 H 0 Z"
             style="fill:#ffffff;fill-opacity:1;fill-rule:nonzero;stroke:none"
             id="path72" /></g><g
           id="g74"
           transform="translate(570.2119,1008.1631)"><path
             d="M 0,0 H 9.254 V 2 103.398 H 0 Z"
             style="fill:#ffffff;fill-opacity:1;fill-rule:nonzero;stroke:none"
             id="path76" /></g><g
           id="g78"
           transform="translate(730.9775,1020.8618)"><path
             d="m 0,0 c -2.041,-1.525 -4.182,-2.714 -6.522,-3.531 -2.342,-0.815 -4.888,-1.261 -7.768,-1.262 -5.806,0.001 -10.6,1.786 -13.918,4.703 -3.313,2.927 -5.228,6.966 -5.239,11.898 0.001,2.768 0.548,5.261 1.526,7.611 1.466,3.52 3.937,6.726 7.038,9.771 2.727,2.681 5.931,5.226 9.28,7.748 L 10.482,11.308 C 7.08,6.686 3.713,2.77 0,0 M -13.012,82.794 C -8.659,82.79 -5.086,81.258 -2.575,78.853 -0.068,76.439 1.386,73.148 1.39,69.459 1.388,67.321 0.929,65.37 0.084,63.478 -1.18,60.647 -3.352,57.956 -6.133,55.321 c -2.416,-2.291 -5.289,-4.532 -8.331,-6.803 -4.607,4.548 -7.85,8.004 -9.878,10.991 -1.106,1.624 -1.863,3.103 -2.352,4.579 -0.487,1.477 -0.717,2.964 -0.718,4.662 0.002,3.889 1.48,7.378 3.998,9.914 2.523,2.53 6.077,4.125 10.402,4.13 M 40.515,39.162 33.15,43.766 15.809,18.804 -8.168,42.408 c 4.48,3.353 8.815,6.849 12.231,10.876 1.945,2.295 3.59,4.77 4.751,7.493 1.163,2.721 1.831,5.691 1.83,8.895 0.003,6 -2.544,11.496 -6.778,15.44 -4.231,3.952 -10.151,6.371 -16.878,6.369 -6.787,0.003 -12.738,-2.563 -16.966,-6.66 -4.231,-4.092 -6.76,-9.726 -6.759,-15.788 -10e-4,-2.522 0.342,-4.882 1.048,-7.144 1.057,-3.398 2.908,-6.536 5.48,-9.795 2.216,-2.807 4.977,-5.726 8.311,-9.043 -4.903,-3.667 -9.751,-7.588 -13.578,-12.242 -2.154,-2.625 -3.982,-5.491 -5.27,-8.67 -1.288,-3.177 -2.028,-6.666 -2.026,-10.473 -0.015,-7.463 2.885,-13.877 7.92,-18.292 5.029,-4.426 12.081,-6.856 20.279,-6.854 7.695,-0.01 14.03,2.423 19.302,6.204 4.67,3.34 8.547,7.691 12.096,12.358 l 18.049,-17.781 h 0.819 12.043 L 22.175,12.55 Z"
             style="fill:#ffffff;fill-opacity:1;fill-rule:nonzero;stroke:none"
             id="path80" /></g><g
           id="g82"
           transform="translate(920.374,1056.5137)"><path
             d="m 0,0 c 4.365,0 8.31,-0.357 11.734,-1.11 2.568,-0.565 4.841,-1.351 6.79,-2.36 2.927,-1.52 5.121,-3.509 6.64,-6.113 1.514,-2.607 2.37,-5.89 2.372,-10.072 -0.001,-3.696 -0.683,-6.7 -1.9,-9.156 -0.916,-1.842 -2.135,-3.39 -3.664,-4.712 -2.291,-1.98 -5.312,-3.451 -9.017,-4.423 C 9.255,-38.918 4.887,-39.382 0,-39.381 H -32.221 V 0 Z m -32.221,46.078 h 30.944 c 4.154,10e-4 7.953,-0.33 11.277,-1.036 2.494,-0.528 4.719,-1.266 6.635,-2.217 2.878,-1.431 5.052,-3.31 6.555,-5.762 1.498,-2.453 2.354,-5.538 2.358,-9.503 -0.002,-3.545 -0.679,-6.388 -1.874,-8.697 -0.899,-1.732 -2.093,-3.179 -3.593,-4.414 -2.248,-1.848 -5.212,-3.21 -8.822,-4.102 C 7.652,9.455 3.418,9.04 -1.277,9.041 H -32.221 Z M 31.08,-37.603 c 1.927,2.269 3.42,4.919 4.417,7.918 0.999,3.001 1.506,6.346 1.506,10.03 0.008,6.65 -1.886,12.34 -5.443,16.78 -2.61,3.266 -6.077,5.824 -10.209,7.707 3.445,1.808 6.406,4.158 8.682,7.087 3.249,4.172 5.061,9.473 5.053,15.641 0.001,4.794 -0.917,8.985 -2.692,12.543 -1.329,2.667 -3.136,4.964 -5.331,6.878 -3.295,2.875 -7.438,4.887 -12.193,6.182 -4.758,1.296 -10.141,1.884 -16.006,1.885 H -41.475 V -48.351 H 0.214 c 5.398,10e-4 10.363,0.512 14.808,1.603 6.659,1.634 12.196,4.599 16.058,9.145"
             style="fill:#ffffff;fill-opacity:1;fill-rule:nonzero;stroke:none"
             id="path84" /></g><g
           id="g86"
           transform="translate(1060.6084,1047.9463)"><path
             d="m 0,0 h -44.116 l 22.089,51.167 z m 3.922,-9.041 13.206,-30.742 h 10.038 l -1.205,2.792 -43.404,100.606 h -9.021 L -71.073,-39.783 h 9.896 l 13.206,30.742 z"
             style="fill:#ffffff;fill-opacity:1;fill-rule:nonzero;stroke:none"
             id="path88" /></g><g
           id="g90"
           transform="translate(1136.1445,1102.5918)"><path
             d="m 0,0 h 29.381 c 8.735,0.004 15.366,-1.94 19.698,-5.329 2.173,-1.696 3.804,-3.749 4.92,-6.199 1.113,-2.45 1.71,-5.313 1.711,-8.623 -10e-4,-3.331 -0.595,-6.222 -1.705,-8.697 -1.673,-3.705 -4.489,-6.547 -8.583,-8.558 -4.089,-2.003 -9.473,-3.113 -16.041,-3.111 H 0 Z m 29.311,-49.345 c 10.855,0.002 19.787,2.624 26.091,7.674 3.147,2.521 5.612,5.651 7.268,9.281 1.658,3.63 2.508,7.747 2.507,12.239 10e-4,4.55 -0.817,8.691 -2.442,12.331 C 60.306,-2.354 56.041,1.918 50.351,4.729 44.657,7.549 37.559,8.968 29.239,8.97 H -9.254 V -94.429 H 0 v 45.084 h 15.483 l 39.618,-45.084 h 11.954 l -39.972,45.084 z"
             style="fill:#ffffff;fill-opacity:1;fill-rule:nonzero;stroke:none"
             id="path92" /></g><g
           id="g94"
           transform="translate(1255.916,1102.5918)"><path
             d="m 0,0 h 29.381 c 8.735,0.004 15.366,-1.94 19.698,-5.329 2.173,-1.696 3.804,-3.749 4.92,-6.199 1.113,-2.45 1.71,-5.313 1.711,-8.623 -10e-4,-3.331 -0.595,-6.222 -1.705,-8.697 -1.673,-3.705 -4.489,-6.547 -8.583,-8.558 -4.089,-2.003 -9.473,-3.113 -16.041,-3.111 H 0 Z m 27.083,-49.345 h 2.228 c 10.855,0.002 19.787,2.624 26.091,7.674 3.147,2.521 5.612,5.651 7.268,9.281 1.658,3.63 2.508,7.747 2.507,12.239 10e-4,4.55 -0.817,8.691 -2.442,12.331 C 60.306,-2.354 56.041,1.918 50.351,4.729 44.657,7.549 37.559,8.968 29.239,8.97 H -9.254 V -94.429 H 0 v 45.084 h 15.483 l 39.618,-45.084 h 11.954 z"
             style="fill:#ffffff;fill-opacity:1;fill-rule:nonzero;stroke:none"
             id="path96" /></g><g
           id="g98"
           transform="translate(1412.666,1016.4229)"><path
             d="m 0,0 c -12.047,0.004 -22.733,4.372 -30.431,11.948 -7.691,7.582 -12.432,18.381 -12.44,31.491 0.008,13.111 4.749,23.91 12.44,31.492 C -22.733,82.507 -12.047,86.875 0,86.879 12.011,86.875 22.698,82.507 30.405,74.931 38.105,67.347 42.863,56.548 42.871,43.439 42.863,30.331 38.105,19.532 30.405,11.948 22.698,4.372 12.011,0.003 0,0 M 0,95.92 C -14.646,95.924 -27.778,90.603 -37.228,81.344 -46.682,72.093 -52.416,58.912 -52.409,43.439 -52.416,27.967 -46.682,14.786 -37.228,5.535 -27.778,-3.724 -14.646,-9.045 0,-9.041 14.646,-9.045 27.778,-3.724 37.228,5.535 46.682,14.786 52.416,27.967 52.409,43.439 52.416,58.912 46.682,72.093 37.228,81.344 27.778,90.603 14.646,95.924 0,95.92"
             style="fill:#ffffff;fill-opacity:1;fill-rule:nonzero;stroke:none"
             id="path100" /></g><g
           id="g102"
           transform="translate(1642.0596,1111.5615)"><path
             d="M 0,0 -31.171,-89.373 -62.479,0 h -8.66 L -102.446,-89.374 -133.618,0 h -9.855 l 36.411,-103.398 h 9.154 l 31.028,88.401 31.028,-88.401 h 9.155 l 0.469,1.336 L 9.64,0 Z"
             style="fill:#ffffff;fill-opacity:1;fill-rule:nonzero;stroke:none"
             id="path104" /></g><path
           d="m 319.976,902.947 h 189.812 v 3.4 H 319.976 Z"
           style="fill:#ffffff;fill-opacity:1;fill-rule:nonzero;stroke:none"
           id="path106" /><path
           d="m 1447.977,902.947 h 189.812 v 3.4 h -189.812 z"
           style="fill:#ffffff;fill-opacity:1;fill-rule:nonzero;stroke:none"
           id="path108" /></g></g></g></svg>
